<svg xmlns="http://www.w3.org/2000/svg" xmlns:xlink="http://www.w3.org/1999/xlink" width="132" zoomAndPan="magnify" viewBox="0 0 98.88 44.999999" height="60" preserveAspectRatio="xMidYMid meet" version="1.0"><defs><g/><clipPath id="78146bd48c"><path d="M 1.128906 0.0273438 L 30.90625 0.0273438 L 30.90625 44.941406 L 1.128906 44.941406 Z M 1.128906 0.0273438 " clip-rule="nonzero"/></clipPath><clipPath id="b65ce9fb34"><path d="M 16.015625 0.0273438 C 7.792969 0.0273438 1.128906 10.082031 1.128906 22.484375 C 1.128906 34.886719 7.792969 44.941406 16.015625 44.941406 C 24.242188 44.941406 30.90625 34.886719 30.90625 22.484375 C 30.90625 10.082031 24.242188 0.0273438 16.015625 0.0273438 Z M 16.015625 0.0273438 " clip-rule="nonzero"/></clipPath></defs><g clip-path="url(#78146bd48c)"><g clip-path="url(#b65ce9fb34)"><path stroke-linecap="butt" transform="matrix(0.0969187, 0, 0, 0.0969339, 1.127557, 0.0272722)" fill="none" stroke-linejoin="miter" d="M 153.613994 0.000737851 C 68.77323 0.000737851 0.0139215 103.728032 0.0139215 231.67448 C 0.0139215 359.620928 68.77323 463.348222 153.613994 463.348222 C 238.495062 463.348222 307.254371 359.620928 307.254371 231.67448 C 307.254371 103.728032 238.495062 0.000737851 153.613994 0.000737851 Z M 153.613994 0.000737851 " stroke="#ffffff" stroke-width="10.811336" stroke-opacity="1" stroke-miterlimit="4"/></g></g><g fill="#ffffff" fill-opacity="1"><g transform="translate(10.026118, 17.723793)"><g><path d="M 5.484375 -3.4375 C 5.691406 -2.800781 5.832031 -2.363281 5.90625 -2.125 C 5.96875 -1.894531 6.015625 -1.722656 6.046875 -1.609375 L 6.078125 -1.609375 C 6.097656 -1.691406 6.175781 -1.9375 6.3125 -2.34375 L 6.625 -3.265625 L 9.015625 -10.25 L 10.875 -10.25 L 10.875 0 L 9.578125 0 L 9.578125 -8.578125 L 9.5625 -8.578125 L 6.609375 0 L 5.390625 0 L 2.453125 -8.71875 L 2.40625 -8.71875 L 2.40625 0 L 1.125 0 L 1.125 -10.25 L 3.203125 -10.25 Z M 5.484375 -3.4375 "/></g></g></g><g fill="#ffffff" fill-opacity="1"><g transform="translate(10.697772, 36.828616)"><g><path d="M 5.40625 -9.265625 C 4.707031 -9.265625 4.101562 -9.09375 3.59375 -8.75 C 3.09375 -8.414062 2.710938 -7.9375 2.453125 -7.3125 C 2.191406 -6.695312 2.0625 -5.976562 2.0625 -5.15625 C 2.0625 -4.28125 2.195312 -3.53125 2.46875 -2.90625 C 2.75 -2.289062 3.15625 -1.816406 3.6875 -1.484375 C 4.21875 -1.148438 4.863281 -0.984375 5.625 -0.984375 C 6.101562 -0.984375 6.597656 -1.070312 7.109375 -1.25 C 7.628906 -1.425781 8.050781 -1.644531 8.375 -1.90625 L 8.375 -4.015625 L 5.53125 -4.015625 L 5.53125 -5.234375 L 9.703125 -5.234375 L 9.703125 -1.328125 C 9.160156 -0.859375 8.53125 -0.488281 7.8125 -0.21875 C 7.101562 0.0390625 6.375 0.171875 5.625 0.171875 C 4.582031 0.171875 3.6875 -0.0351562 2.9375 -0.453125 C 2.195312 -0.878906 1.628906 -1.488281 1.234375 -2.28125 C 0.847656 -3.082031 0.65625 -4.046875 0.65625 -5.171875 C 0.65625 -6.222656 0.851562 -7.140625 1.25 -7.921875 C 1.65625 -8.710938 2.21875 -9.328125 2.9375 -9.765625 C 3.664062 -10.210938 4.492188 -10.4375 5.421875 -10.4375 C 6.492188 -10.4375 7.378906 -10.175781 8.078125 -9.65625 C 8.785156 -9.144531 9.273438 -8.40625 9.546875 -7.4375 L 8.21875 -7.125 C 8.019531 -7.820312 7.675781 -8.351562 7.1875 -8.71875 C 6.707031 -9.082031 6.113281 -9.265625 5.40625 -9.265625 Z M 5.40625 -9.265625 "/></g></g></g></svg>